<svg width="24" height="25" viewBox="0 0 24 25" fill="none" xmlns="http://www.w3.org/2000/svg">
<path d="M19.5525 3.49691C19.3118 3.51443 19.0754 3.57091 18.8528 3.66416H18.8498C18.636 3.74891 17.6198 4.17641 16.0748 4.82441L10.5383 7.15616C6.56553 8.82866 2.66028 10.4757 2.66028 10.4757L2.70678 10.4577C2.70678 10.4577 2.43753 10.5462 2.15628 10.7389C1.98252 10.8495 1.83301 10.9941 1.71678 11.1642C1.57878 11.3667 1.46778 11.6764 1.50903 11.9967C1.57653 12.5382 1.92753 12.8629 2.17953 13.0422C2.43453 13.2237 2.67753 13.3084 2.67753 13.3084H2.68353L6.34578 14.5422C6.51003 15.0694 7.46178 18.1984 7.69053 18.9192C7.82553 19.3497 7.95678 19.6189 8.12103 19.8244C8.20053 19.9294 8.29353 20.0172 8.40528 20.0877C8.46337 20.1215 8.52532 20.1481 8.58978 20.1672L8.55228 20.1582C8.56353 20.1612 8.57253 20.1702 8.58078 20.1732C8.61078 20.1814 8.63103 20.1844 8.66928 20.1904C9.24903 20.3659 9.71478 20.0059 9.71478 20.0059L9.74103 19.9849L11.9033 18.0162L15.5273 20.7964L15.6098 20.8317C16.365 21.1632 17.13 20.9787 17.5343 20.6532C17.9415 20.3254 18.0998 19.9062 18.0998 19.9062L18.126 19.8387L20.9265 5.49191C21.006 5.13791 21.0263 4.80641 20.9385 4.48466C20.848 4.15903 20.6391 3.87897 20.3528 3.69941C20.1123 3.55325 19.8335 3.4827 19.5525 3.49691V3.49691ZM19.4768 5.03441C19.4738 5.08166 19.4828 5.07641 19.4618 5.16716V5.17541L16.6875 19.3729C16.6755 19.3932 16.6553 19.4374 16.5998 19.4817C16.5413 19.5282 16.4948 19.5574 16.251 19.4607L11.8185 16.0624L9.14103 18.5029L9.70353 14.9104L16.9455 8.16041C17.244 7.88291 17.1443 7.82441 17.1443 7.82441C17.1653 7.48391 16.6935 7.72466 16.6935 7.72466L7.56153 13.3819L7.55853 13.3669L3.18153 11.8932V11.8902L3.17028 11.8879C3.17795 11.8854 3.18546 11.8824 3.19278 11.8789L3.21678 11.8669L3.24003 11.8587C3.24003 11.8587 7.14828 10.2117 11.121 8.53916C13.11 7.70141 15.114 6.85766 16.6553 6.20666C18.1965 5.55941 19.3358 5.08466 19.4003 5.05916C19.4618 5.03516 19.4325 5.03516 19.4768 5.03516V5.03441Z" fill="white"/>
</svg>
