<svg width="24" height="25" viewBox="0 0 24 25" fill="none" xmlns="http://www.w3.org/2000/svg">
<g clip-path="url(#clip0_79_255)">
<path d="M15.683 0.5H8.31577C1.59277 0.5 -0.000976562 2.09375 -0.000976562 8.81675V16.184C-0.000976562 22.907 1.59277 24.5007 8.31577 24.5007H15.683C22.406 24.5007 23.9998 22.907 23.9998 16.184V8.81675C23.9998 2.09375 22.3903 0.5 15.683 0.5ZM19.3745 17.621H17.6323C16.9723 17.621 16.769 17.0975 15.5818 15.8945C14.5505 14.8947 14.0938 14.762 13.8395 14.762C13.4803 14.762 13.3783 14.8633 13.3783 15.356V16.9302C13.3783 17.3525 13.2455 17.606 12.128 17.606C10.28 17.606 8.22952 16.4885 6.79177 14.4065C4.62352 11.3555 4.03027 9.07025 4.03027 8.59775C4.03027 8.3435 4.13152 8.10575 4.61977 8.10575H6.36577C6.80752 8.10575 6.97552 8.309 7.14727 8.7815C8.01052 11.2737 9.44827 13.457 10.0415 13.457C10.2605 13.457 10.3618 13.3557 10.3618 12.797V10.223C10.295 9.03575 9.67027 8.93375 9.67027 8.51225C9.67027 8.309 9.83827 8.10575 10.1075 8.10575H12.8533C13.2245 8.10575 13.361 8.309 13.361 8.74625V12.2188C13.361 12.5938 13.529 12.7265 13.6303 12.7265C13.8493 12.7265 14.0368 12.5938 14.4425 12.1873C15.6965 10.781 16.595 8.61275 16.595 8.61275C16.712 8.3585 16.9153 8.12075 17.357 8.12075H19.103C19.6265 8.12075 19.7435 8.39 19.6265 8.765C19.4075 9.7805 17.2708 12.7963 17.2708 12.7963C17.087 13.1008 17.0165 13.2335 17.2708 13.5732C17.4583 13.8275 18.068 14.3548 18.4738 14.8273C19.22 15.6748 19.7938 16.3857 19.9468 16.8777C20.1185 17.366 19.865 17.6202 19.3723 17.6202L19.3745 17.621Z" fill="white"/>
</g>
<defs>
<clipPath id="clip0_79_255">
<rect width="24" height="24" fill="white" transform="translate(0 0.5)"/>
</clipPath>
</defs>
</svg>
